<svg xmlns="http://www.w3.org/2000/svg" xmlns:xlink="http://www.w3.org/1999/xlink" width="500" zoomAndPan="magnify" viewBox="0 0 375 161.999997" height="216" preserveAspectRatio="xMidYMid meet" version="1.0"><defs><g/><clipPath id="149469b9c2"><path d="M 5.777344 25 L 353.019531 25 L 353.019531 159.636719 L 5.777344 159.636719 Z M 5.777344 25 " clip-rule="nonzero"/></clipPath></defs><g clip-path="url(#149469b9c2)"><path fill="#223b6e" d="M 331.257812 124.542969 C 323.886719 120.933594 316.34375 117.269531 308.195312 116.210938 C 285.671875 113.273438 266.058594 132.816406 244.207031 139.007812 C 223.589844 144.851562 203.734375 124.273438 182.164062 123.867188 C 161.585938 123.476562 140.460938 133.910156 121.128906 126.863281 C 108.515625 122.265625 100.28125 110.417969 89.886719 101.929688 C 84.683594 97.683594 77.171875 94.1875 71.527344 97.828125 C 68.28125 99.917969 66.722656 103.777344 65.507812 107.433594 C 62.71875 115.847656 60.71875 124.527344 59.550781 133.320312 C 59.160156 136.28125 57.601562 139.019531 55.128906 140.707031 C 50.625 143.78125 46.84375 141.164062 43.949219 138.371094 C 35.019531 129.757812 29.847656 117.988281 26.054688 106.183594 C 22.613281 95.464844 20.128906 84.4375 18.636719 73.28125 C 17.210938 62.648438 16.765625 47.296875 26.199219 42.148438 C 35.261719 37.203125 48.304688 41.765625 58.460938 43.675781 C 77.742188 47.292969 89.769531 45.769531 97.667969 33.339844 C 88.34375 36.609375 76.257812 36.320312 66.8125 33.410156 C 57.371094 30.5 48.15625 26.496094 38.339844 25.359375 C 28.523438 24.222656 17.578125 26.550781 11.359375 34.21875 C 4.761719 42.347656 5.171875 53.976562 6.765625 64.316406 C 11.355469 94.046875 23.125 122.648438 40.800781 147.015625 C 44.964844 152.757812 50.113281 158.679688 57.246094 159.546875 C 58.515625 159.703125 59.816406 159.671875 61.039062 159.292969 C 65.652344 157.863281 66.300781 153.070312 66.742188 148.929688 C 68.046875 136.726562 70.515625 124.648438 74.101562 112.914062 C 76.140625 106.242188 84.679688 104.261719 89.449219 109.355469 C 90.839844 110.847656 92.097656 112.480469 93.207031 114.152344 C 96.90625 119.71875 99.550781 125.984375 103.816406 131.128906 C 109.332031 137.773438 117.476562 142.183594 126.070312 143.175781 C 147.039062 145.59375 167.539062 128.546875 187.945312 133.9375 C 195.574219 135.953125 202.035156 140.902344 209.128906 144.355469 C 222.554688 150.878906 238.828125 151.792969 252.535156 145.871094 C 263.191406 141.265625 272.695312 135.410156 283.152344 130.371094 C 295.253906 124.539062 308.730469 120.988281 321.582031 124.917969 C 332.121094 128.140625 353.023438 134.402344 353.023438 134.402344 C 353.023438 134.402344 338.523438 128.101562 331.257812 124.542969 " fill-opacity="1" fill-rule="nonzero"/></g><path fill="#7ac4e7" d="M 129.023438 63.128906 C 134.582031 51.75 136.941406 38.832031 135.769531 26.230469 C 135.265625 20.839844 134.082031 15.386719 131.1875 10.8125 C 126.628906 3.609375 118.351562 0.871094 110.128906 2.367188 C 102.003906 3.851562 95.214844 9.496094 89.550781 15.183594 C 84.449219 20.308594 77.847656 27.917969 69.703125 25.261719 C 70.285156 25.449219 71.226562 27.046875 71.863281 27.476562 C 77.0625 31.003906 83.839844 27.535156 88.828125 25.382812 C 95.761719 22.398438 100.8125 19.246094 107.332031 15.472656 C 110.488281 13.648438 114.878906 13.457031 118.59375 14.710938 C 126.515625 17.378906 128.265625 27.214844 129.359375 34.21875 C 130.855469 43.785156 130.207031 53.566406 129.023438 63.128906 " fill-opacity="1" fill-rule="nonzero"/><g fill="#223b6e" fill-opacity="1"><g transform="translate(140.975847, 76.902285)"><g><path d="M 3.414062 -35.820312 L 3.414062 0 L 17.984375 0 C 28.273438 0 36.6875 -7.644531 36.6875 -17.933594 C 36.6875 -28.128906 28.273438 -35.820312 17.933594 -35.820312 Z M 10.867188 -6.730469 L 10.867188 -29.089844 L 17.933594 -29.089844 C 24.1875 -29.089844 29.042969 -24.425781 29.042969 -17.933594 C 29.042969 -11.492188 24.1875 -6.730469 17.984375 -6.730469 Z M 10.867188 -6.730469 "/></g></g></g><g fill="#223b6e" fill-opacity="1"><g transform="translate(179.586276, 76.902285)"><g><path d="M 19.808594 -8.703125 C 18.703125 -6.972656 16.636719 -6.25 14.570312 -6.25 C 13.847656 -6.25 13.175781 -6.300781 12.550781 -6.539062 L 26.109375 -16.253906 C 24.617188 -20.773438 20.003906 -24.8125 13.992188 -24.8125 C 7.019531 -24.8125 1.394531 -19.136719 1.394531 -12.117188 C 1.394531 -5.191406 7.261719 0.527344 14.570312 0.527344 C 18.898438 0.527344 23.175781 -1.441406 25.242188 -4.519531 Z M 8.316406 -12.117188 C 8.316406 -15.53125 10.867188 -17.984375 13.992188 -17.984375 C 15.289062 -17.984375 16.394531 -17.550781 17.359375 -16.828125 L 8.511719 -10.53125 C 8.367188 -11.011719 8.316406 -11.539062 8.316406 -12.117188 Z M 8.316406 -12.117188 "/></g></g></g><g fill="#223b6e" fill-opacity="1"><g transform="translate(207.089603, 76.902285)"><g><path d="M 26.878906 -12.117188 C 26.878906 -19.136719 22.261719 -24.8125 15.625 -24.8125 C 13.414062 -24.8125 10.578125 -24.136719 9.230469 -22.597656 L 9.230469 -24.28125 L 2.402344 -24.28125 L 2.402344 0 L 9.230469 0 L 9.230469 -12.117188 C 9.230469 -16.011719 12.019531 -17.984375 15.050781 -17.984375 C 17.839844 -17.984375 20.097656 -16.011719 20.097656 -12.117188 L 20.097656 0 L 26.878906 0 Z M 26.878906 -12.117188 "/></g></g></g><g fill="#223b6e" fill-opacity="1"><g transform="translate(236.035407, 76.902285)"><g><path d="M 16.636719 -17.984375 L 16.636719 -24.28125 L 10.867188 -24.28125 L 10.867188 -32.40625 L 4.039062 -27.457031 L 4.039062 -24.28125 L 0.382812 -24.28125 L 0.382812 -17.984375 L 4.039062 -17.984375 L 4.039062 -10.050781 C 4.039062 -3.75 9.230469 0.527344 16.492188 0.527344 L 16.492188 -6.25 C 13.367188 -6.25 10.867188 -7.5 10.867188 -10.242188 L 10.867188 -17.984375 Z M 16.636719 -17.984375 "/></g></g></g><g fill="#223b6e" fill-opacity="1"><g transform="translate(253.393278, 76.902285)"><g><path d="M 19.234375 -24.28125 L 19.234375 -22.597656 C 18.175781 -23.753906 15.484375 -24.8125 13.320312 -24.8125 C 6.828125 -24.8125 1.394531 -19.136719 1.394531 -12.117188 C 1.394531 -5.191406 6.683594 0.527344 13.320312 0.527344 C 15.53125 0.527344 18.175781 -0.335938 19.234375 -1.730469 L 19.234375 0 L 26.0625 0 L 26.0625 -24.28125 Z M 13.992188 -6.25 C 10.867188 -6.25 8.316406 -8.65625 8.316406 -12.117188 C 8.316406 -15.53125 10.867188 -17.984375 13.992188 -17.984375 C 17.164062 -17.984375 19.523438 -15.53125 19.523438 -12.117188 C 19.523438 -8.65625 17.164062 -6.25 13.992188 -6.25 Z M 13.992188 -6.25 "/></g></g></g><g fill="#223b6e" fill-opacity="1"><g transform="translate(281.858251, 76.902285)"><g><path d="M 2.402344 -35.820312 L 2.402344 0 L 9.230469 0 L 9.230469 -35.820312 Z M 2.402344 -35.820312 "/></g></g></g><g fill="#223b6e" fill-opacity="1"><g transform="translate(293.494273, 76.902285)"><g><path d="M 5.769531 -28.5625 C 8.078125 -28.5625 9.855469 -30.339844 9.855469 -32.457031 C 9.855469 -34.425781 8.078125 -36.207031 5.769531 -36.207031 C 3.652344 -36.207031 1.828125 -34.378906 1.828125 -32.457031 C 1.828125 -30.339844 3.652344 -28.5625 5.769531 -28.5625 Z M 9.230469 -24.28125 L 2.402344 -24.28125 L 2.402344 0 L 9.230469 0 Z M 9.230469 -24.28125 "/></g></g></g><g fill="#223b6e" fill-opacity="1"><g transform="translate(305.130296, 76.902285)"><g><path d="M 8.65625 -9.761719 C 10.195312 -9.519531 10.820312 -8.847656 10.820312 -7.886719 C 10.820312 -6.972656 10.242188 -6.25 8.992188 -6.25 C 7.933594 -6.25 7.066406 -6.539062 6.347656 -7.308594 L 0.578125 -3.125 C 2.691406 -0.722656 5.335938 0.527344 8.945312 0.527344 C 14.183594 0.527344 18.269531 -2.835938 18.269531 -7.789062 C 18.269531 -12.789062 14.859375 -15.097656 10.386719 -15.675781 C 8.367188 -15.914062 7.789062 -16.394531 7.789062 -17.214844 C 7.789062 -17.933594 8.316406 -18.464844 9.230469 -18.464844 C 10.144531 -18.464844 10.820312 -18.03125 11.445312 -17.453125 L 16.347656 -21.011719 C 14.617188 -23.511719 12.214844 -24.8125 9.085938 -24.8125 C 5.480469 -24.8125 1.105469 -21.683594 1.105469 -17.453125 C 1.105469 -13.320312 4.230469 -10.386719 8.65625 -9.761719 Z M 8.65625 -9.761719 "/></g></g></g><g fill="#223b6e" fill-opacity="1"><g transform="translate(324.459547, 76.902285)"><g><path d="M 16.636719 -17.984375 L 16.636719 -24.28125 L 10.867188 -24.28125 L 10.867188 -32.40625 L 4.039062 -27.457031 L 4.039062 -24.28125 L 0.382812 -24.28125 L 0.382812 -17.984375 L 4.039062 -17.984375 L 4.039062 -10.050781 C 4.039062 -3.75 9.230469 0.527344 16.492188 0.527344 L 16.492188 -6.25 C 13.367188 -6.25 10.867188 -7.5 10.867188 -10.242188 L 10.867188 -17.984375 Z M 16.636719 -17.984375 "/></g></g></g><g fill="#223b6e" fill-opacity="1"><g transform="translate(341.817418, 76.902285)"><g><path d="M 19.234375 -24.28125 L 19.234375 -22.597656 C 18.175781 -23.753906 15.484375 -24.8125 13.320312 -24.8125 C 6.828125 -24.8125 1.394531 -19.136719 1.394531 -12.117188 C 1.394531 -5.191406 6.683594 0.527344 13.320312 0.527344 C 15.53125 0.527344 18.175781 -0.335938 19.234375 -1.730469 L 19.234375 0 L 26.0625 0 L 26.0625 -24.28125 Z M 13.992188 -6.25 C 10.867188 -6.25 8.316406 -8.65625 8.316406 -12.117188 C 8.316406 -15.53125 10.867188 -17.984375 13.992188 -17.984375 C 17.164062 -17.984375 19.523438 -15.53125 19.523438 -12.117188 C 19.523438 -8.65625 17.164062 -6.25 13.992188 -6.25 Z M 13.992188 -6.25 "/></g></g></g><g fill="#51ade5" fill-opacity="1"><g transform="translate(106.821591, 104.076342)"><g><path d="M 12.65625 -6.890625 C 12.65625 -4.660156 12.046875 -2.953125 10.828125 -1.765625 C 9.617188 -0.585938 7.878906 0 5.609375 0 L 1.859375 0 L 1.859375 -13.515625 L 6 -13.515625 C 8.101562 -13.515625 9.738281 -12.929688 10.90625 -11.765625 C 12.070312 -10.609375 12.65625 -8.984375 12.65625 -6.890625 Z M 10.984375 -6.828125 C 10.984375 -8.597656 10.539062 -9.925781 9.65625 -10.8125 C 8.769531 -11.707031 7.457031 -12.15625 5.71875 -12.15625 L 3.4375 -12.15625 L 3.4375 -1.359375 L 5.34375 -1.359375 C 7.21875 -1.359375 8.625 -1.816406 9.5625 -2.734375 C 10.507812 -3.660156 10.984375 -5.023438 10.984375 -6.828125 Z M 10.984375 -6.828125 "/></g></g></g><g fill="#51ade5" fill-opacity="1"><g transform="translate(120.626039, 104.076342)"><g><path d="M 5.90625 0.1875 C 4.40625 0.1875 3.222656 -0.265625 2.359375 -1.171875 C 1.492188 -2.085938 1.0625 -3.359375 1.0625 -4.984375 C 1.0625 -6.617188 1.460938 -7.914062 2.265625 -8.875 C 3.078125 -9.832031 4.160156 -10.3125 5.515625 -10.3125 C 6.785156 -10.3125 7.789062 -9.894531 8.53125 -9.0625 C 9.269531 -8.226562 9.640625 -7.128906 9.640625 -5.765625 L 9.640625 -4.796875 L 2.65625 -4.796875 C 2.6875 -3.597656 2.984375 -2.691406 3.546875 -2.078125 C 4.117188 -1.460938 4.925781 -1.15625 5.96875 -1.15625 C 7.050781 -1.15625 8.128906 -1.382812 9.203125 -1.84375 L 9.203125 -0.46875 C 8.660156 -0.238281 8.144531 -0.0703125 7.65625 0.03125 C 7.175781 0.132812 6.59375 0.1875 5.90625 0.1875 Z M 5.5 -9.03125 C 4.675781 -9.03125 4.019531 -8.765625 3.53125 -8.234375 C 3.050781 -7.703125 2.769531 -6.96875 2.6875 -6.03125 L 7.984375 -6.03125 C 7.984375 -7 7.765625 -7.738281 7.328125 -8.25 C 6.898438 -8.769531 6.289062 -9.03125 5.5 -9.03125 Z M 5.5 -9.03125 "/></g></g></g><g fill="#51ade5" fill-opacity="1"><g transform="translate(131.249825, 104.076342)"><g><path d="M 8.5625 0 L 8.5625 -6.5625 C 8.5625 -7.382812 8.375 -8 8 -8.40625 C 7.625 -8.8125 7.035156 -9.015625 6.234375 -9.015625 C 5.171875 -9.015625 4.390625 -8.726562 3.890625 -8.15625 C 3.398438 -7.582031 3.15625 -6.632812 3.15625 -5.3125 L 3.15625 0 L 1.625 0 L 1.625 -10.140625 L 2.875 -10.140625 L 3.125 -8.75 L 3.203125 -8.75 C 3.515625 -9.25 3.953125 -9.632812 4.515625 -9.90625 C 5.085938 -10.175781 5.722656 -10.3125 6.421875 -10.3125 C 7.640625 -10.3125 8.554688 -10.015625 9.171875 -9.421875 C 9.785156 -8.835938 10.09375 -7.898438 10.09375 -6.609375 L 10.09375 0 Z M 8.5625 0 "/></g></g></g><g fill="#51ade5" fill-opacity="1"><g transform="translate(142.872191, 104.076342)"><g><path d="M 4.90625 -1.078125 C 5.175781 -1.078125 5.4375 -1.097656 5.6875 -1.140625 C 5.9375 -1.179688 6.132812 -1.222656 6.28125 -1.265625 L 6.28125 -0.09375 C 6.113281 -0.0078125 5.867188 0.0546875 5.546875 0.109375 C 5.222656 0.160156 4.929688 0.1875 4.671875 0.1875 C 2.710938 0.1875 1.734375 -0.84375 1.734375 -2.90625 L 1.734375 -8.9375 L 0.28125 -8.9375 L 0.28125 -9.6875 L 1.734375 -10.3125 L 2.390625 -12.484375 L 3.265625 -12.484375 L 3.265625 -10.140625 L 6.21875 -10.140625 L 6.21875 -8.9375 L 3.265625 -8.9375 L 3.265625 -2.984375 C 3.265625 -2.367188 3.410156 -1.894531 3.703125 -1.5625 C 3.992188 -1.238281 4.394531 -1.078125 4.90625 -1.078125 Z M 4.90625 -1.078125 "/></g></g></g><g fill="#51ade5" fill-opacity="1"><g transform="translate(149.557135, 104.076342)"><g><path d="M 7.859375 0 L 7.546875 -1.4375 L 7.484375 -1.4375 C 6.972656 -0.800781 6.46875 -0.367188 5.96875 -0.140625 C 5.46875 0.078125 4.84375 0.1875 4.09375 0.1875 C 3.082031 0.1875 2.289062 -0.0703125 1.71875 -0.59375 C 1.15625 -1.113281 0.875 -1.847656 0.875 -2.796875 C 0.875 -4.847656 2.507812 -5.921875 5.78125 -6.015625 L 7.5 -6.078125 L 7.5 -6.703125 C 7.5 -7.492188 7.328125 -8.078125 6.984375 -8.453125 C 6.640625 -8.835938 6.09375 -9.03125 5.34375 -9.03125 C 4.5 -9.03125 3.546875 -8.769531 2.484375 -8.25 L 2 -9.4375 C 2.5 -9.707031 3.046875 -9.914062 3.640625 -10.0625 C 4.242188 -10.21875 4.84375 -10.296875 5.4375 -10.296875 C 6.644531 -10.296875 7.539062 -10.023438 8.125 -9.484375 C 8.707031 -8.953125 9 -8.097656 9 -6.921875 L 9 0 Z M 4.390625 -1.078125 C 5.347656 -1.078125 6.097656 -1.335938 6.640625 -1.859375 C 7.191406 -2.390625 7.46875 -3.125 7.46875 -4.0625 L 7.46875 -4.984375 L 5.921875 -4.921875 C 4.703125 -4.878906 3.820312 -4.6875 3.28125 -4.34375 C 2.75 -4.007812 2.484375 -3.488281 2.484375 -2.78125 C 2.484375 -2.226562 2.648438 -1.804688 2.984375 -1.515625 C 3.316406 -1.222656 3.785156 -1.078125 4.390625 -1.078125 Z M 4.390625 -1.078125 "/></g></g></g><g fill="#51ade5" fill-opacity="1"><g transform="translate(160.088461, 104.076342)"><g><path d="M 3.15625 0 L 1.625 0 L 1.625 -14.390625 L 3.15625 -14.390625 Z M 3.15625 0 "/></g></g></g><g fill="#51ade5" fill-opacity="1"><g transform="translate(164.877945, 104.076342)"><g/></g></g><g fill="#51ade5" fill-opacity="1"><g transform="translate(169.796874, 104.076342)"><g><path d="M 10.359375 0 L 8.671875 -4.296875 L 3.25 -4.296875 L 1.59375 0 L 0 0 L 5.34375 -13.578125 L 6.671875 -13.578125 L 11.984375 0 Z M 8.1875 -5.71875 L 6.609375 -9.90625 C 6.410156 -10.4375 6.203125 -11.085938 5.984375 -11.859375 C 5.847656 -11.265625 5.65625 -10.613281 5.40625 -9.90625 L 3.8125 -5.71875 Z M 8.1875 -5.71875 "/></g></g></g><g fill="#51ade5" fill-opacity="1"><g transform="translate(181.77983, 104.076342)"><g><path d="M 6.34375 0.1875 C 5.6875 0.1875 5.082031 0.0664062 4.53125 -0.171875 C 3.988281 -0.421875 3.53125 -0.796875 3.15625 -1.296875 L 3.046875 -1.296875 C 3.117188 -0.710938 3.15625 -0.15625 3.15625 0.375 L 3.15625 4.546875 L 1.625 4.546875 L 1.625 -10.140625 L 2.875 -10.140625 L 3.09375 -8.75 L 3.15625 -8.75 C 3.550781 -9.300781 4.007812 -9.695312 4.53125 -9.9375 C 5.0625 -10.1875 5.664062 -10.3125 6.34375 -10.3125 C 7.6875 -10.3125 8.722656 -9.851562 9.453125 -8.9375 C 10.179688 -8.019531 10.546875 -6.734375 10.546875 -5.078125 C 10.546875 -3.410156 10.175781 -2.113281 9.4375 -1.1875 C 8.695312 -0.269531 7.664062 0.1875 6.34375 0.1875 Z M 6.125 -9.015625 C 5.082031 -9.015625 4.332031 -8.726562 3.875 -8.15625 C 3.414062 -7.582031 3.175781 -6.671875 3.15625 -5.421875 L 3.15625 -5.078125 C 3.15625 -3.648438 3.394531 -2.628906 3.875 -2.015625 C 4.351562 -1.398438 5.113281 -1.09375 6.15625 -1.09375 C 7.03125 -1.09375 7.710938 -1.445312 8.203125 -2.15625 C 8.703125 -2.875 8.953125 -3.851562 8.953125 -5.09375 C 8.953125 -6.351562 8.703125 -7.320312 8.203125 -8 C 7.710938 -8.675781 7.019531 -9.015625 6.125 -9.015625 Z M 6.125 -9.015625 "/></g></g></g><g fill="#51ade5" fill-opacity="1"><g transform="translate(193.383704, 104.076342)"><g><path d="M 6.34375 0.1875 C 5.6875 0.1875 5.082031 0.0664062 4.53125 -0.171875 C 3.988281 -0.421875 3.53125 -0.796875 3.15625 -1.296875 L 3.046875 -1.296875 C 3.117188 -0.710938 3.15625 -0.15625 3.15625 0.375 L 3.15625 4.546875 L 1.625 4.546875 L 1.625 -10.140625 L 2.875 -10.140625 L 3.09375 -8.75 L 3.15625 -8.75 C 3.550781 -9.300781 4.007812 -9.695312 4.53125 -9.9375 C 5.0625 -10.1875 5.664062 -10.3125 6.34375 -10.3125 C 7.6875 -10.3125 8.722656 -9.851562 9.453125 -8.9375 C 10.179688 -8.019531 10.546875 -6.734375 10.546875 -5.078125 C 10.546875 -3.410156 10.175781 -2.113281 9.4375 -1.1875 C 8.695312 -0.269531 7.664062 0.1875 6.34375 0.1875 Z M 6.125 -9.015625 C 5.082031 -9.015625 4.332031 -8.726562 3.875 -8.15625 C 3.414062 -7.582031 3.175781 -6.671875 3.15625 -5.421875 L 3.15625 -5.078125 C 3.15625 -3.648438 3.394531 -2.628906 3.875 -2.015625 C 4.351562 -1.398438 5.113281 -1.09375 6.15625 -1.09375 C 7.03125 -1.09375 7.710938 -1.445312 8.203125 -2.15625 C 8.703125 -2.875 8.953125 -3.851562 8.953125 -5.09375 C 8.953125 -6.351562 8.703125 -7.320312 8.203125 -8 C 7.710938 -8.675781 7.019531 -9.015625 6.125 -9.015625 Z M 6.125 -9.015625 "/></g></g></g><g fill="#51ade5" fill-opacity="1"><g transform="translate(204.987577, 104.076342)"><g><path d="M 10.375 -5.078125 C 10.375 -3.421875 9.957031 -2.128906 9.125 -1.203125 C 8.289062 -0.273438 7.140625 0.1875 5.671875 0.1875 C 4.765625 0.1875 3.957031 -0.0234375 3.25 -0.453125 C 2.550781 -0.878906 2.007812 -1.488281 1.625 -2.28125 C 1.25 -3.082031 1.0625 -4.015625 1.0625 -5.078125 C 1.0625 -6.722656 1.472656 -8.003906 2.296875 -8.921875 C 3.128906 -9.847656 4.28125 -10.3125 5.75 -10.3125 C 7.164062 -10.3125 8.289062 -9.835938 9.125 -8.890625 C 9.957031 -7.953125 10.375 -6.679688 10.375 -5.078125 Z M 2.65625 -5.078125 C 2.65625 -3.785156 2.910156 -2.796875 3.421875 -2.109375 C 3.941406 -1.429688 4.707031 -1.09375 5.71875 -1.09375 C 6.71875 -1.09375 7.476562 -1.429688 8 -2.109375 C 8.519531 -2.785156 8.78125 -3.773438 8.78125 -5.078125 C 8.78125 -6.367188 8.519531 -7.347656 8 -8.015625 C 7.476562 -8.679688 6.710938 -9.015625 5.703125 -9.015625 C 4.691406 -9.015625 3.929688 -8.679688 3.421875 -8.015625 C 2.910156 -7.359375 2.65625 -6.378906 2.65625 -5.078125 Z M 2.65625 -5.078125 "/></g></g></g><g fill="#51ade5" fill-opacity="1"><g transform="translate(216.425021, 104.076342)"><g><path d="M 3.15625 0 L 1.625 0 L 1.625 -10.140625 L 3.15625 -10.140625 Z M 1.5 -12.875 C 1.5 -13.226562 1.582031 -13.484375 1.75 -13.640625 C 1.925781 -13.804688 2.144531 -13.890625 2.40625 -13.890625 C 2.65625 -13.890625 2.867188 -13.804688 3.046875 -13.640625 C 3.222656 -13.484375 3.3125 -13.226562 3.3125 -12.875 C 3.3125 -12.53125 3.222656 -12.273438 3.046875 -12.109375 C 2.867188 -11.941406 2.65625 -11.859375 2.40625 -11.859375 C 2.144531 -11.859375 1.925781 -11.941406 1.75 -12.109375 C 1.582031 -12.273438 1.5 -12.53125 1.5 -12.875 Z M 1.5 -12.875 "/></g></g></g><g fill="#51ade5" fill-opacity="1"><g transform="translate(221.214505, 104.076342)"><g><path d="M 8.5625 0 L 8.5625 -6.5625 C 8.5625 -7.382812 8.375 -8 8 -8.40625 C 7.625 -8.8125 7.035156 -9.015625 6.234375 -9.015625 C 5.171875 -9.015625 4.390625 -8.726562 3.890625 -8.15625 C 3.398438 -7.582031 3.15625 -6.632812 3.15625 -5.3125 L 3.15625 0 L 1.625 0 L 1.625 -10.140625 L 2.875 -10.140625 L 3.125 -8.75 L 3.203125 -8.75 C 3.515625 -9.25 3.953125 -9.632812 4.515625 -9.90625 C 5.085938 -10.175781 5.722656 -10.3125 6.421875 -10.3125 C 7.640625 -10.3125 8.554688 -10.015625 9.171875 -9.421875 C 9.785156 -8.835938 10.09375 -7.898438 10.09375 -6.609375 L 10.09375 0 Z M 8.5625 0 "/></g></g></g><g fill="#51ade5" fill-opacity="1"><g transform="translate(232.836871, 104.076342)"><g><path d="M 4.90625 -1.078125 C 5.175781 -1.078125 5.4375 -1.097656 5.6875 -1.140625 C 5.9375 -1.179688 6.132812 -1.222656 6.28125 -1.265625 L 6.28125 -0.09375 C 6.113281 -0.0078125 5.867188 0.0546875 5.546875 0.109375 C 5.222656 0.160156 4.929688 0.1875 4.671875 0.1875 C 2.710938 0.1875 1.734375 -0.84375 1.734375 -2.90625 L 1.734375 -8.9375 L 0.28125 -8.9375 L 0.28125 -9.6875 L 1.734375 -10.3125 L 2.390625 -12.484375 L 3.265625 -12.484375 L 3.265625 -10.140625 L 6.21875 -10.140625 L 6.21875 -8.9375 L 3.265625 -8.9375 L 3.265625 -2.984375 C 3.265625 -2.367188 3.410156 -1.894531 3.703125 -1.5625 C 3.992188 -1.238281 4.394531 -1.078125 4.90625 -1.078125 Z M 4.90625 -1.078125 "/></g></g></g><g fill="#51ade5" fill-opacity="1"><g transform="translate(239.521815, 104.076342)"><g><path d="M 14.546875 0 L 14.546875 -6.59375 C 14.546875 -7.394531 14.375 -8 14.03125 -8.40625 C 13.6875 -8.8125 13.148438 -9.015625 12.421875 -9.015625 C 11.460938 -9.015625 10.753906 -8.738281 10.296875 -8.1875 C 9.835938 -7.644531 9.609375 -6.800781 9.609375 -5.65625 L 9.609375 0 L 8.078125 0 L 8.078125 -6.59375 C 8.078125 -7.394531 7.90625 -8 7.5625 -8.40625 C 7.21875 -8.8125 6.679688 -9.015625 5.953125 -9.015625 C 4.984375 -9.015625 4.273438 -8.722656 3.828125 -8.140625 C 3.378906 -7.566406 3.15625 -6.625 3.15625 -5.3125 L 3.15625 0 L 1.625 0 L 1.625 -10.140625 L 2.875 -10.140625 L 3.125 -8.75 L 3.203125 -8.75 C 3.492188 -9.238281 3.898438 -9.617188 4.421875 -9.890625 C 4.953125 -10.171875 5.546875 -10.3125 6.203125 -10.3125 C 7.785156 -10.3125 8.816406 -9.738281 9.296875 -8.59375 L 9.375 -8.59375 C 9.675781 -9.125 10.113281 -9.539062 10.6875 -9.84375 C 11.257812 -10.15625 11.914062 -10.3125 12.65625 -10.3125 C 13.800781 -10.3125 14.65625 -10.015625 15.21875 -9.421875 C 15.789062 -8.835938 16.078125 -7.898438 16.078125 -6.609375 L 16.078125 0 Z M 14.546875 0 "/></g></g></g><g fill="#51ade5" fill-opacity="1"><g transform="translate(257.135659, 104.076342)"><g><path d="M 5.90625 0.1875 C 4.40625 0.1875 3.222656 -0.265625 2.359375 -1.171875 C 1.492188 -2.085938 1.0625 -3.359375 1.0625 -4.984375 C 1.0625 -6.617188 1.460938 -7.914062 2.265625 -8.875 C 3.078125 -9.832031 4.160156 -10.3125 5.515625 -10.3125 C 6.785156 -10.3125 7.789062 -9.894531 8.53125 -9.0625 C 9.269531 -8.226562 9.640625 -7.128906 9.640625 -5.765625 L 9.640625 -4.796875 L 2.65625 -4.796875 C 2.6875 -3.597656 2.984375 -2.691406 3.546875 -2.078125 C 4.117188 -1.460938 4.925781 -1.15625 5.96875 -1.15625 C 7.050781 -1.15625 8.128906 -1.382812 9.203125 -1.84375 L 9.203125 -0.46875 C 8.660156 -0.238281 8.144531 -0.0703125 7.65625 0.03125 C 7.175781 0.132812 6.59375 0.1875 5.90625 0.1875 Z M 5.5 -9.03125 C 4.675781 -9.03125 4.019531 -8.765625 3.53125 -8.234375 C 3.050781 -7.703125 2.769531 -6.96875 2.6875 -6.03125 L 7.984375 -6.03125 C 7.984375 -7 7.765625 -7.738281 7.328125 -8.25 C 6.898438 -8.769531 6.289062 -9.03125 5.5 -9.03125 Z M 5.5 -9.03125 "/></g></g></g><g fill="#51ade5" fill-opacity="1"><g transform="translate(267.759446, 104.076342)"><g><path d="M 8.5625 0 L 8.5625 -6.5625 C 8.5625 -7.382812 8.375 -8 8 -8.40625 C 7.625 -8.8125 7.035156 -9.015625 6.234375 -9.015625 C 5.171875 -9.015625 4.390625 -8.726562 3.890625 -8.15625 C 3.398438 -7.582031 3.15625 -6.632812 3.15625 -5.3125 L 3.15625 0 L 1.625 0 L 1.625 -10.140625 L 2.875 -10.140625 L 3.125 -8.75 L 3.203125 -8.75 C 3.515625 -9.25 3.953125 -9.632812 4.515625 -9.90625 C 5.085938 -10.175781 5.722656 -10.3125 6.421875 -10.3125 C 7.640625 -10.3125 8.554688 -10.015625 9.171875 -9.421875 C 9.785156 -8.835938 10.09375 -7.898438 10.09375 -6.609375 L 10.09375 0 Z M 8.5625 0 "/></g></g></g><g fill="#51ade5" fill-opacity="1"><g transform="translate(279.381812, 104.076342)"><g><path d="M 4.90625 -1.078125 C 5.175781 -1.078125 5.4375 -1.097656 5.6875 -1.140625 C 5.9375 -1.179688 6.132812 -1.222656 6.28125 -1.265625 L 6.28125 -0.09375 C 6.113281 -0.0078125 5.867188 0.0546875 5.546875 0.109375 C 5.222656 0.160156 4.929688 0.1875 4.671875 0.1875 C 2.710938 0.1875 1.734375 -0.84375 1.734375 -2.90625 L 1.734375 -8.9375 L 0.28125 -8.9375 L 0.28125 -9.6875 L 1.734375 -10.3125 L 2.390625 -12.484375 L 3.265625 -12.484375 L 3.265625 -10.140625 L 6.21875 -10.140625 L 6.21875 -8.9375 L 3.265625 -8.9375 L 3.265625 -2.984375 C 3.265625 -2.367188 3.410156 -1.894531 3.703125 -1.5625 C 3.992188 -1.238281 4.394531 -1.078125 4.90625 -1.078125 Z M 4.90625 -1.078125 "/></g></g></g><g fill="#51ade5" fill-opacity="1"><g transform="translate(286.066756, 104.076342)"><g/></g></g><g fill="#51ade5" fill-opacity="1"><g transform="translate(290.985685, 104.076342)"><g><path d="M 7.84375 0 L 3.25 -11.984375 L 3.1875 -11.984375 C 3.269531 -11.035156 3.3125 -9.90625 3.3125 -8.59375 L 3.3125 0 L 1.859375 0 L 1.859375 -13.515625 L 4.21875 -13.515625 L 8.5 -2.375 L 8.578125 -2.375 L 12.90625 -13.515625 L 15.25 -13.515625 L 15.25 0 L 13.671875 0 L 13.671875 -8.703125 C 13.671875 -9.703125 13.71875 -10.789062 13.8125 -11.96875 L 13.734375 -11.96875 L 9.109375 0 Z M 7.84375 0 "/></g></g></g><g fill="#51ade5" fill-opacity="1"><g transform="translate(308.081747, 104.076342)"><g><path d="M 7.859375 0 L 7.546875 -1.4375 L 7.484375 -1.4375 C 6.972656 -0.800781 6.46875 -0.367188 5.96875 -0.140625 C 5.46875 0.078125 4.84375 0.1875 4.09375 0.1875 C 3.082031 0.1875 2.289062 -0.0703125 1.71875 -0.59375 C 1.15625 -1.113281 0.875 -1.847656 0.875 -2.796875 C 0.875 -4.847656 2.507812 -5.921875 5.78125 -6.015625 L 7.5 -6.078125 L 7.5 -6.703125 C 7.5 -7.492188 7.328125 -8.078125 6.984375 -8.453125 C 6.640625 -8.835938 6.09375 -9.03125 5.34375 -9.03125 C 4.5 -9.03125 3.546875 -8.769531 2.484375 -8.25 L 2 -9.4375 C 2.5 -9.707031 3.046875 -9.914062 3.640625 -10.0625 C 4.242188 -10.21875 4.84375 -10.296875 5.4375 -10.296875 C 6.644531 -10.296875 7.539062 -10.023438 8.125 -9.484375 C 8.707031 -8.953125 9 -8.097656 9 -6.921875 L 9 0 Z M 4.390625 -1.078125 C 5.347656 -1.078125 6.097656 -1.335938 6.640625 -1.859375 C 7.191406 -2.390625 7.46875 -3.125 7.46875 -4.0625 L 7.46875 -4.984375 L 5.921875 -4.921875 C 4.703125 -4.878906 3.820312 -4.6875 3.28125 -4.34375 C 2.75 -4.007812 2.484375 -3.488281 2.484375 -2.78125 C 2.484375 -2.226562 2.648438 -1.804688 2.984375 -1.515625 C 3.316406 -1.222656 3.785156 -1.078125 4.390625 -1.078125 Z M 4.390625 -1.078125 "/></g></g></g><g fill="#51ade5" fill-opacity="1"><g transform="translate(318.613072, 104.076342)"><g><path d="M 8.5625 0 L 8.5625 -6.5625 C 8.5625 -7.382812 8.375 -8 8 -8.40625 C 7.625 -8.8125 7.035156 -9.015625 6.234375 -9.015625 C 5.171875 -9.015625 4.390625 -8.726562 3.890625 -8.15625 C 3.398438 -7.582031 3.15625 -6.632812 3.15625 -5.3125 L 3.15625 0 L 1.625 0 L 1.625 -10.140625 L 2.875 -10.140625 L 3.125 -8.75 L 3.203125 -8.75 C 3.515625 -9.25 3.953125 -9.632812 4.515625 -9.90625 C 5.085938 -10.175781 5.722656 -10.3125 6.421875 -10.3125 C 7.640625 -10.3125 8.554688 -10.015625 9.171875 -9.421875 C 9.785156 -8.835938 10.09375 -7.898438 10.09375 -6.609375 L 10.09375 0 Z M 8.5625 0 "/></g></g></g><g fill="#51ade5" fill-opacity="1"><g transform="translate(330.235438, 104.076342)"><g><path d="M 7.859375 0 L 7.546875 -1.4375 L 7.484375 -1.4375 C 6.972656 -0.800781 6.46875 -0.367188 5.96875 -0.140625 C 5.46875 0.078125 4.84375 0.1875 4.09375 0.1875 C 3.082031 0.1875 2.289062 -0.0703125 1.71875 -0.59375 C 1.15625 -1.113281 0.875 -1.847656 0.875 -2.796875 C 0.875 -4.847656 2.507812 -5.921875 5.78125 -6.015625 L 7.5 -6.078125 L 7.5 -6.703125 C 7.5 -7.492188 7.328125 -8.078125 6.984375 -8.453125 C 6.640625 -8.835938 6.09375 -9.03125 5.34375 -9.03125 C 4.5 -9.03125 3.546875 -8.769531 2.484375 -8.25 L 2 -9.4375 C 2.5 -9.707031 3.046875 -9.914062 3.640625 -10.0625 C 4.242188 -10.21875 4.84375 -10.296875 5.4375 -10.296875 C 6.644531 -10.296875 7.539062 -10.023438 8.125 -9.484375 C 8.707031 -8.953125 9 -8.097656 9 -6.921875 L 9 0 Z M 4.390625 -1.078125 C 5.347656 -1.078125 6.097656 -1.335938 6.640625 -1.859375 C 7.191406 -2.390625 7.46875 -3.125 7.46875 -4.0625 L 7.46875 -4.984375 L 5.921875 -4.921875 C 4.703125 -4.878906 3.820312 -4.6875 3.28125 -4.34375 C 2.75 -4.007812 2.484375 -3.488281 2.484375 -2.78125 C 2.484375 -2.226562 2.648438 -1.804688 2.984375 -1.515625 C 3.316406 -1.222656 3.785156 -1.078125 4.390625 -1.078125 Z M 4.390625 -1.078125 "/></g></g></g><g fill="#51ade5" fill-opacity="1"><g transform="translate(340.766764, 104.076342)"><g><path d="M 9.921875 -10.140625 L 9.921875 -9.15625 L 8.046875 -8.9375 C 8.210938 -8.726562 8.363281 -8.445312 8.5 -8.09375 C 8.632812 -7.75 8.703125 -7.359375 8.703125 -6.921875 C 8.703125 -5.921875 8.363281 -5.125 7.6875 -4.53125 C 7.007812 -3.945312 6.082031 -3.65625 4.90625 -3.65625 C 4.601562 -3.65625 4.316406 -3.675781 4.046875 -3.71875 C 3.390625 -3.375 3.0625 -2.941406 3.0625 -2.421875 C 3.0625 -2.140625 3.175781 -1.929688 3.40625 -1.796875 C 3.632812 -1.671875 4.03125 -1.609375 4.59375 -1.609375 L 6.375 -1.609375 C 7.476562 -1.609375 8.320312 -1.375 8.90625 -0.90625 C 9.5 -0.445312 9.796875 0.21875 9.796875 1.09375 C 9.796875 2.21875 9.34375 3.070312 8.4375 3.65625 C 7.539062 4.25 6.226562 4.546875 4.5 4.546875 C 3.175781 4.546875 2.15625 4.296875 1.4375 3.796875 C 0.71875 3.304688 0.359375 2.613281 0.359375 1.71875 C 0.359375 1.101562 0.554688 0.566406 0.953125 0.109375 C 1.347656 -0.335938 1.898438 -0.640625 2.609375 -0.796875 C 2.359375 -0.910156 2.144531 -1.085938 1.96875 -1.328125 C 1.789062 -1.578125 1.703125 -1.867188 1.703125 -2.203125 C 1.703125 -2.566406 1.800781 -2.890625 2 -3.171875 C 2.195312 -3.453125 2.507812 -3.71875 2.9375 -3.96875 C 2.40625 -4.1875 1.972656 -4.554688 1.640625 -5.078125 C 1.316406 -5.597656 1.15625 -6.191406 1.15625 -6.859375 C 1.15625 -7.960938 1.488281 -8.8125 2.15625 -9.40625 C 2.820312 -10.007812 3.765625 -10.3125 4.984375 -10.3125 C 5.515625 -10.3125 5.992188 -10.253906 6.421875 -10.140625 Z M 1.84375 1.703125 C 1.84375 2.253906 2.070312 2.671875 2.53125 2.953125 C 3 3.234375 3.660156 3.375 4.515625 3.375 C 5.804688 3.375 6.757812 3.179688 7.375 2.796875 C 8 2.410156 8.3125 1.890625 8.3125 1.234375 C 8.3125 0.679688 8.140625 0.296875 7.796875 0.078125 C 7.460938 -0.128906 6.828125 -0.234375 5.890625 -0.234375 L 4.046875 -0.234375 C 3.347656 -0.234375 2.804688 -0.0664062 2.421875 0.265625 C 2.035156 0.597656 1.84375 1.078125 1.84375 1.703125 Z M 2.671875 -6.890625 C 2.671875 -6.179688 2.867188 -5.644531 3.265625 -5.28125 C 3.671875 -4.914062 4.234375 -4.734375 4.953125 -4.734375 C 6.441406 -4.734375 7.1875 -5.460938 7.1875 -6.921875 C 7.1875 -8.441406 6.429688 -9.203125 4.921875 -9.203125 C 4.203125 -9.203125 3.644531 -9.003906 3.25 -8.609375 C 2.863281 -8.222656 2.671875 -7.648438 2.671875 -6.890625 Z M 2.671875 -6.890625 "/></g></g></g><g fill="#51ade5" fill-opacity="1"><g transform="translate(351.140897, 104.076342)"><g><path d="M 5.90625 0.1875 C 4.40625 0.1875 3.222656 -0.265625 2.359375 -1.171875 C 1.492188 -2.085938 1.0625 -3.359375 1.0625 -4.984375 C 1.0625 -6.617188 1.460938 -7.914062 2.265625 -8.875 C 3.078125 -9.832031 4.160156 -10.3125 5.515625 -10.3125 C 6.785156 -10.3125 7.789062 -9.894531 8.53125 -9.0625 C 9.269531 -8.226562 9.640625 -7.128906 9.640625 -5.765625 L 9.640625 -4.796875 L 2.65625 -4.796875 C 2.6875 -3.597656 2.984375 -2.691406 3.546875 -2.078125 C 4.117188 -1.460938 4.925781 -1.15625 5.96875 -1.15625 C 7.050781 -1.15625 8.128906 -1.382812 9.203125 -1.84375 L 9.203125 -0.46875 C 8.660156 -0.238281 8.144531 -0.0703125 7.65625 0.03125 C 7.175781 0.132812 6.59375 0.1875 5.90625 0.1875 Z M 5.5 -9.03125 C 4.675781 -9.03125 4.019531 -8.765625 3.53125 -8.234375 C 3.050781 -7.703125 2.769531 -6.96875 2.6875 -6.03125 L 7.984375 -6.03125 C 7.984375 -7 7.765625 -7.738281 7.328125 -8.25 C 6.898438 -8.769531 6.289062 -9.03125 5.5 -9.03125 Z M 5.5 -9.03125 "/></g></g></g><g fill="#51ade5" fill-opacity="1"><g transform="translate(361.764683, 104.076342)"><g><path d="M 6.25 -10.3125 C 6.695312 -10.3125 7.101562 -10.273438 7.46875 -10.203125 L 7.25 -8.78125 C 6.832031 -8.875 6.460938 -8.921875 6.140625 -8.921875 C 5.316406 -8.921875 4.613281 -8.585938 4.03125 -7.921875 C 3.445312 -7.253906 3.15625 -6.425781 3.15625 -5.4375 L 3.15625 0 L 1.625 0 L 1.625 -10.140625 L 2.890625 -10.140625 L 3.0625 -8.25 L 3.140625 -8.25 C 3.515625 -8.914062 3.96875 -9.425781 4.5 -9.78125 C 5.03125 -10.132812 5.613281 -10.3125 6.25 -10.3125 Z M 6.25 -10.3125 "/></g></g></g></svg>